<svg width="95" height="16" viewBox="0 0 95 16" fill="none" xmlns="http://www.w3.org/2000/svg">
<path d="M0.42 15V0.899999H3.52V15H0.42ZM9.73797 15.22C8.4713 15.22 7.54464 14.8933 6.95797 14.24C6.3713 13.5733 6.07797 12.5867 6.07797 11.28V0.899999H9.09797V11.16C9.09797 11.4933 9.1513 11.7867 9.25797 12.04C9.36464 12.28 9.51797 12.46 9.71797 12.58C9.9313 12.7 10.198 12.76 10.518 12.76C10.6513 12.76 10.7913 12.7533 10.938 12.74C11.0846 12.7267 11.2246 12.7 11.358 12.66L11.318 15C11.0646 15.0667 10.8046 15.12 10.538 15.16C10.2846 15.2 10.018 15.22 9.73797 15.22ZM16.3981 15.22C15.1315 15.22 14.2048 14.8933 13.6181 14.24C13.0315 13.5733 12.7381 12.5867 12.7381 11.28V0.899999H15.7581V11.16C15.7581 11.4933 15.8115 11.7867 15.9181 12.04C16.0248 12.28 16.1781 12.46 16.3781 12.58C16.5915 12.7 16.8581 12.76 17.1781 12.76C17.3115 12.76 17.4515 12.7533 17.5981 12.74C17.7448 12.7267 17.8848 12.7 18.0181 12.66L17.9781 15C17.7248 15.0667 17.4648 15.12 17.1981 15.16C16.9448 15.2 16.6781 15.22 16.3981 15.22ZM23.0183 15.22C22.1916 15.22 21.5049 15.0667 20.9583 14.76C20.4116 14.4533 20.0049 13.9933 19.7383 13.38C19.4849 12.7533 19.3583 11.98 19.3583 11.06V5.18H22.3783V11.14C22.3783 11.5267 22.4316 11.8533 22.5383 12.12C22.6449 12.3733 22.8049 12.5667 23.0183 12.7C23.2449 12.82 23.5316 12.88 23.8783 12.88C24.2649 12.88 24.6049 12.7933 24.8983 12.62C25.1916 12.4333 25.4183 12.1733 25.5783 11.84C25.7516 11.5067 25.8383 11.1133 25.8383 10.66V5.18H28.8583V15H25.9183V13.08H26.2183C25.9249 13.76 25.5049 14.2867 24.9583 14.66C24.4116 15.0333 23.7649 15.22 23.0183 15.22ZM31.2352 15V5.18H34.1952V7.02H33.9752C34.1485 6.60667 34.3885 6.24667 34.6952 5.94C35.0018 5.63333 35.3685 5.4 35.7952 5.24C36.2218 5.06667 36.6885 4.98 37.1952 4.98C37.9552 4.98 38.5885 5.16 39.0952 5.52C39.6018 5.88 39.9618 6.43333 40.1752 7.18H39.8952C40.1885 6.5 40.6352 5.96667 41.2352 5.58C41.8485 5.18 42.5485 4.98 43.3352 4.98C44.0952 4.98 44.7152 5.13333 45.1952 5.44C45.6885 5.73333 46.0552 6.18667 46.2952 6.8C46.5352 7.4 46.6552 8.16667 46.6552 9.1V15H43.6352V9.2C43.6352 8.54667 43.5285 8.07333 43.3152 7.78C43.1152 7.47333 42.7685 7.32 42.2752 7.32C41.9018 7.32 41.5752 7.41333 41.2952 7.6C41.0152 7.77333 40.8018 8.03333 40.6552 8.38C40.5218 8.71333 40.4552 9.12667 40.4552 9.62V15H37.4352V9.2C37.4352 8.54667 37.3285 8.07333 37.1152 7.78C36.9152 7.47333 36.5685 7.32 36.0752 7.32C35.6885 7.32 35.3618 7.41333 35.0952 7.6C34.8285 7.77333 34.6218 8.03333 34.4752 8.38C34.3285 8.71333 34.2552 9.12667 34.2552 9.62V15H31.2352ZM48.8486 3.28V0.459999H52.1086V3.28H48.8486ZM48.9686 15V5.18H51.9886V15H48.9686ZM54.3202 15V5.18H57.2802V7.02H57.0602C57.3668 6.36667 57.8202 5.86667 58.4202 5.52C59.0335 5.16 59.7268 4.98 60.5002 4.98C61.2868 4.98 61.9335 5.13333 62.4402 5.44C62.9468 5.73333 63.3268 6.18667 63.5802 6.8C63.8335 7.4 63.9602 8.16667 63.9602 9.1V15H60.9402V9.24C60.9402 8.78667 60.8802 8.42 60.7602 8.14C60.6535 7.84667 60.4868 7.64 60.2602 7.52C60.0468 7.38667 59.7735 7.32 59.4402 7.32C59.0135 7.32 58.6402 7.41333 58.3202 7.6C58.0135 7.77333 57.7735 8.02667 57.6002 8.36C57.4268 8.69333 57.3402 9.08 57.3402 9.52V15H54.3202ZM69.5347 15.22C68.8147 15.22 68.168 15.08 67.5947 14.8C67.0214 14.52 66.5747 14.14 66.2547 13.66C65.9347 13.18 65.7747 12.64 65.7747 12.04C65.7747 11.32 65.9614 10.7533 66.3347 10.34C66.708 9.91333 67.3147 9.61333 68.1547 9.44C68.9947 9.25333 70.108 9.16 71.4947 9.16H72.5547V10.72H71.5147C70.9947 10.72 70.5547 10.74 70.1947 10.78C69.848 10.82 69.5614 10.8933 69.3347 11C69.108 11.0933 68.9414 11.2133 68.8347 11.36C68.7414 11.5067 68.6947 11.6933 68.6947 11.92C68.6947 12.2933 68.8214 12.6 69.0747 12.84C69.3414 13.08 69.7214 13.2 70.2147 13.2C70.6014 13.2 70.9414 13.1133 71.2347 12.94C71.5414 12.7533 71.7814 12.5067 71.9547 12.2C72.128 11.88 72.2147 11.52 72.2147 11.12V8.82C72.2147 8.23333 72.0814 7.82 71.8147 7.58C71.548 7.32667 71.0947 7.2 70.4547 7.2C69.9214 7.2 69.3547 7.28667 68.7547 7.46C68.168 7.62 67.5814 7.86667 66.9947 8.2L66.1747 6.18C66.5214 5.94 66.9414 5.73333 67.4347 5.56C67.9414 5.37333 68.468 5.23333 69.0147 5.14C69.5614 5.03333 70.0814 4.98 70.5747 4.98C71.6014 4.98 72.4414 5.13333 73.0947 5.44C73.7614 5.73333 74.2614 6.19333 74.5947 6.82C74.928 7.43333 75.0947 8.22667 75.0947 9.2V15H72.2747V13.02H72.4147C72.3347 13.4733 72.1614 13.8667 71.8947 14.2C71.6414 14.52 71.3147 14.7733 70.9147 14.96C70.5147 15.1333 70.0547 15.22 69.5347 15.22ZM82.1675 15.22C80.7675 15.22 79.7275 14.88 79.0475 14.2C78.3675 13.52 78.0275 12.52 78.0275 11.2V7.44H76.1675V5.18H78.0275V2.3H81.0475V5.18H83.9475V7.44H81.0475V11.08C81.0475 11.64 81.1742 12.06 81.4275 12.34C81.6942 12.62 82.1142 12.76 82.6875 12.76C82.8608 12.76 83.0408 12.74 83.2275 12.7C83.4275 12.66 83.6408 12.6067 83.8675 12.54L84.3075 14.74C84.0275 14.8867 83.6942 15 83.3075 15.08C82.9208 15.1733 82.5408 15.22 82.1675 15.22ZM90.4358 15.22C89.2758 15.22 88.2758 15.0133 87.4358 14.6C86.6091 14.1733 85.9691 13.58 85.5158 12.82C85.0758 12.0467 84.8558 11.14 84.8558 10.1C84.8558 9.08667 85.0691 8.2 85.4958 7.44C85.9224 6.66667 86.5158 6.06667 87.2758 5.64C88.0491 5.2 88.9224 4.98 89.8958 4.98C90.8558 4.98 91.6824 5.18667 92.3758 5.6C93.0691 6 93.6024 6.57333 93.9758 7.32C94.3624 8.06667 94.5558 8.95333 94.5558 9.98V10.74H87.3358V9.18H92.3758L92.0558 9.46C92.0558 8.64667 91.8758 8.03333 91.5158 7.62C91.1691 7.19333 90.6691 6.98 90.0158 6.98C89.5224 6.98 89.1024 7.09333 88.7558 7.32C88.4091 7.54667 88.1424 7.87333 87.9558 8.3C87.7691 8.72667 87.6758 9.24 87.6758 9.84V10C87.6758 10.68 87.7758 11.24 87.9758 11.68C88.1891 12.1067 88.5024 12.4267 88.9158 12.64C89.3424 12.8533 89.8691 12.96 90.4958 12.96C91.0291 12.96 91.5691 12.88 92.1158 12.72C92.6624 12.56 93.1558 12.3133 93.5958 11.98L94.3958 14C93.9024 14.3733 93.2958 14.6733 92.5758 14.9C91.8691 15.1133 91.1558 15.22 90.4358 15.22Z" fill="#F37975"/>
</svg>
